<svg width="132" height="24" viewBox="0 0 132 24" fill="none" xmlns="http://www.w3.org/2000/svg">
<path d="M6.83398 16.3174C7.19348 16.3175 7.53463 16.466 7.7832 16.7236C8.03108 16.9807 8.16699 17.3256 8.16699 17.6816C8.16693 18.0377 8.03118 18.3826 7.7832 18.6396L4.4502 22.0938C4.32722 22.2213 4.17972 22.3235 4.0166 22.3936C3.8535 22.4636 3.67766 22.5 3.5 22.5C3.32253 22.4999 3.14732 22.4635 2.98438 22.3936C2.86204 22.341 2.74833 22.2704 2.64746 22.1846L2.55078 22.0938L0.884766 20.3672C0.761839 20.2398 0.665234 20.0889 0.599609 19.9248C0.533993 19.7606 0.5 19.5849 0.5 19.4082C0.500047 19.2316 0.534055 19.0566 0.599609 18.8926C0.665235 18.7284 0.761802 18.5776 0.884766 18.4502C1.00771 18.3229 1.15443 18.2203 1.31738 18.1504C1.48048 18.0804 1.65633 18.0449 1.83398 18.0449C2.0114 18.045 2.18671 18.0806 2.34961 18.1504C2.51266 18.2204 2.66022 18.3228 2.7832 18.4502L3.5 19.1934L5.88379 16.7236H5.88477C6.13341 16.466 6.47438 16.3174 6.83398 16.3174ZM20.167 18.0449C20.5264 18.045 20.8677 18.1937 21.1162 18.4512C21.3638 18.708 21.4999 19.0525 21.5 19.4082C21.5 19.764 21.364 20.1093 21.1162 20.3662C20.8677 20.6237 20.5264 20.7724 20.167 20.7725H11C10.6406 20.7724 10.2993 20.6237 10.0508 20.3662C9.803 20.1093 9.66699 19.7641 9.66699 19.4082C9.66709 19.0525 9.80316 18.708 10.0508 18.4512C10.2993 18.1936 10.6406 18.045 11 18.0449H20.167ZM6.83398 9.4082C7.19348 9.40829 7.53463 9.55685 7.7832 9.81445C8.03118 10.0715 8.16692 10.4164 8.16699 10.7725C8.16699 11.1284 8.03107 11.4734 7.7832 11.7305L4.4502 15.1855C4.32725 15.3131 4.17966 15.4153 4.0166 15.4854C3.85354 15.5553 3.6776 15.5918 3.5 15.5918C3.32259 15.5917 3.14727 15.5552 2.98438 15.4854C2.82125 15.4153 2.67375 15.3122 2.55078 15.1846L0.884766 13.458C0.761939 13.3307 0.665231 13.1806 0.599609 13.0166C0.534006 12.8525 0.500013 12.6767 0.5 12.5C0.5 12.1439 0.636707 11.7991 0.884766 11.542C1.13341 11.2843 1.47439 11.1357 1.83398 11.1357C2.19352 11.1358 2.53461 11.2844 2.7832 11.542L3.5 12.2852L5.88379 9.81445H5.88477C6.13339 9.55696 6.47451 9.4082 6.83398 9.4082ZM20.167 11.1367C20.5264 11.1368 20.8677 11.2845 21.1162 11.542C21.3641 11.799 21.5 12.1441 21.5 12.5C21.5 12.8559 21.3641 13.2011 21.1162 13.458C20.8677 13.7155 20.5264 13.8632 20.167 13.8633H11C10.6406 13.8632 10.2993 13.7155 10.0508 13.458C9.80287 13.2011 9.66702 12.8559 9.66699 12.5C9.66699 12.1441 9.80291 11.799 10.0508 11.542C10.2993 11.2845 10.6406 11.1368 11 11.1367H20.167ZM6.83398 2.5C7.19348 2.50009 7.53463 2.64865 7.7832 2.90625C8.0311 3.16329 8.16699 3.50825 8.16699 3.86426C8.16694 4.22029 8.03117 4.56525 7.7832 4.82227L4.4502 8.27637C4.32722 8.40395 4.17972 8.5061 4.0166 8.57617C3.8535 8.64621 3.67767 8.68262 3.5 8.68262C3.32252 8.68256 3.14732 8.64612 2.98438 8.57617C2.82126 8.5061 2.67375 8.40395 2.55078 8.27637L0.884766 6.5498C0.636707 6.29273 0.5 5.94695 0.5 5.59082C0.500105 5.23484 0.636802 4.88978 0.884766 4.63281C1.13338 4.37532 1.47451 4.22754 1.83398 4.22754C2.19348 4.2276 2.53461 4.37525 2.7832 4.63281L3.5 5.37695L5.88379 2.90625H5.88477C6.13341 2.6486 6.4744 2.5 6.83398 2.5ZM20.167 4.22754C20.5264 4.22762 20.8677 4.37628 21.1162 4.63379C21.3638 4.89062 21.4999 5.23517 21.5 5.59082C21.5 5.94665 21.364 6.29189 21.1162 6.54883C20.8677 6.80634 20.5264 6.95499 20.167 6.95508H11C10.6406 6.95501 10.2993 6.80636 10.0508 6.54883C9.80301 6.29188 9.66699 5.94667 9.66699 5.59082C9.6671 5.23515 9.80315 4.89063 10.0508 4.63379C10.2993 4.37626 10.6406 4.2276 11 4.22754H20.167Z" fill="#5CAF51" stroke="#39674E"/>
<path d="M37.38 19V8.14H33.08V5H45.62V8.14H41.34V19H37.38ZM51.2616 19.18C50.0749 19.18 49.0216 18.94 48.1016 18.46C47.1816 17.98 46.4549 17.32 45.9216 16.48C45.4016 15.6267 45.1416 14.6533 45.1416 13.56C45.1416 12.4667 45.4016 11.5 45.9216 10.66C46.4549 9.82 47.1816 9.16667 48.1016 8.7C49.0216 8.22 50.0749 7.98 51.2616 7.98C52.4482 7.98 53.5016 8.22 54.4216 8.7C55.3549 9.16667 56.0816 9.82 56.6016 10.66C57.1216 11.5 57.3816 12.4667 57.3816 13.56C57.3816 14.6533 57.1216 15.6267 56.6016 16.48C56.0816 17.32 55.3549 17.98 54.4216 18.46C53.5016 18.94 52.4482 19.18 51.2616 19.18ZM51.2616 16.16C51.7016 16.16 52.0882 16.06 52.4216 15.86C52.7682 15.66 53.0416 15.3667 53.2416 14.98C53.4416 14.58 53.5416 14.1067 53.5416 13.56C53.5416 13.0133 53.4416 12.5533 53.2416 12.18C53.0416 11.7933 52.7682 11.5 52.4216 11.3C52.0882 11.1 51.7016 11 51.2616 11C50.8349 11 50.4482 11.1 50.1016 11.3C49.7682 11.5 49.4949 11.7933 49.2816 12.18C49.0816 12.5533 48.9816 13.0133 48.9816 13.56C48.9816 14.1067 49.0816 14.58 49.2816 14.98C49.4949 15.3667 49.7682 15.66 50.1016 15.86C50.4482 16.06 50.8349 16.16 51.2616 16.16ZM59.3219 19V5H65.9419C67.4885 5 68.8485 5.28667 70.0219 5.86C71.1952 6.43333 72.1085 7.24 72.7619 8.28C73.4285 9.32 73.7619 10.56 73.7619 12C73.7619 13.4267 73.4285 14.6667 72.7619 15.72C72.1085 16.76 71.1952 17.5667 70.0219 18.14C68.8485 18.7133 67.4885 19 65.9419 19H59.3219ZM63.2819 15.84H65.7819C66.5819 15.84 67.2752 15.6933 67.8619 15.4C68.4619 15.0933 68.9285 14.6533 69.2619 14.08C69.5952 13.4933 69.7619 12.8 69.7619 12C69.7619 11.1867 69.5952 10.4933 69.2619 9.92C68.9285 9.34667 68.4619 8.91333 67.8619 8.62C67.2752 8.31333 66.5819 8.16 65.7819 8.16H63.2819V15.84ZM81.1053 19.18C79.9186 19.18 78.8653 18.94 77.9453 18.46C77.0253 17.98 76.2986 17.32 75.7653 16.48C75.2453 15.6267 74.9853 14.6533 74.9853 13.56C74.9853 12.4667 75.2453 11.5 75.7653 10.66C76.2986 9.82 77.0253 9.16667 77.9453 8.7C78.8653 8.22 79.9186 7.98 81.1053 7.98C82.292 7.98 83.3453 8.22 84.2653 8.7C85.1986 9.16667 85.9253 9.82 86.4453 10.66C86.9653 11.5 87.2253 12.4667 87.2253 13.56C87.2253 14.6533 86.9653 15.6267 86.4453 16.48C85.9253 17.32 85.1986 17.98 84.2653 18.46C83.3453 18.94 82.292 19.18 81.1053 19.18ZM81.1053 16.16C81.5453 16.16 81.932 16.06 82.2653 15.86C82.612 15.66 82.8853 15.3667 83.0853 14.98C83.2853 14.58 83.3853 14.1067 83.3853 13.56C83.3853 13.0133 83.2853 12.5533 83.0853 12.18C82.8853 11.7933 82.612 11.5 82.2653 11.3C81.932 11.1 81.5453 11 81.1053 11C80.6786 11 80.292 11.1 79.9453 11.3C79.612 11.5 79.3386 11.7933 79.1253 12.18C78.9253 12.5533 78.8253 13.0133 78.8253 13.56C78.8253 14.1067 78.9253 14.58 79.1253 14.98C79.3386 15.3667 79.612 15.66 79.9453 15.86C80.292 16.06 80.6786 16.16 81.1053 16.16ZM94.9859 19V5H98.9459V15.86H105.626V19H94.9859ZM107.013 19V8.16H110.813V19H107.013ZM108.913 6.96C108.22 6.96 107.66 6.76667 107.233 6.38C106.806 5.99333 106.593 5.51333 106.593 4.94C106.593 4.36667 106.806 3.88667 107.233 3.5C107.66 3.11333 108.22 2.92 108.913 2.92C109.606 2.92 110.166 3.10667 110.593 3.48C111.02 3.84 111.233 4.30667 111.233 4.88C111.233 5.48 111.02 5.98 110.593 6.38C110.18 6.76667 109.62 6.96 108.913 6.96ZM117.223 19.18C116.303 19.18 115.403 19.0733 114.523 18.86C113.656 18.6467 112.956 18.38 112.423 18.06L113.563 15.46C114.069 15.7667 114.663 16.0133 115.343 16.2C116.023 16.3733 116.689 16.46 117.342 16.46C117.983 16.46 118.423 16.3933 118.663 16.26C118.916 16.1267 119.043 15.9467 119.043 15.72C119.043 15.5067 118.923 15.3533 118.683 15.26C118.456 15.1533 118.149 15.0733 117.763 15.02C117.389 14.9667 116.976 14.9067 116.523 14.84C116.069 14.7733 115.609 14.6867 115.143 14.58C114.689 14.46 114.269 14.2867 113.883 14.06C113.509 13.82 113.209 13.5 112.983 13.1C112.756 12.7 112.643 12.1933 112.643 11.58C112.643 10.8867 112.843 10.2733 113.243 9.74C113.656 9.19333 114.256 8.76667 115.043 8.46C115.829 8.14 116.789 7.98 117.923 7.98C118.683 7.98 119.449 8.06 120.223 8.22C121.009 8.36667 121.669 8.59333 122.203 8.9L121.063 11.48C120.529 11.1733 119.996 10.9667 119.463 10.86C118.929 10.74 118.423 10.68 117.942 10.68C117.303 10.68 116.849 10.7533 116.583 10.9C116.329 11.0467 116.203 11.2267 116.203 11.44C116.203 11.6533 116.316 11.82 116.543 11.94C116.769 12.0467 117.069 12.1333 117.443 12.2C117.829 12.2533 118.249 12.3133 118.703 12.38C119.156 12.4333 119.609 12.52 120.063 12.64C120.529 12.76 120.949 12.94 121.323 13.18C121.709 13.4067 122.016 13.72 122.243 14.12C122.469 14.5067 122.583 15.0067 122.583 15.62C122.583 16.2867 122.376 16.8867 121.963 17.42C121.563 17.9533 120.963 18.38 120.163 18.7C119.376 19.02 118.396 19.18 117.223 19.18ZM129.06 19.18C127.673 19.18 126.593 18.84 125.82 18.16C125.047 17.4667 124.66 16.4267 124.66 15.04V5.74H128.46V15C128.46 15.3867 128.567 15.6933 128.78 15.92C128.993 16.1333 129.267 16.24 129.6 16.24C130.053 16.24 130.44 16.1267 130.76 15.9L131.7 18.56C131.38 18.7733 130.987 18.9267 130.52 19.02C130.053 19.1267 129.567 19.18 129.06 19.18ZM123.08 11.4V8.56H130.94V11.4H123.08Z" fill="black"/>
</svg>
