<svg width="32" height="32" viewBox="0 0 32 32" xmlns="http://www.w3.org/2000/svg">
<path d="M27 6.66667H22V5.66667C22 4.87102 21.6839 4.10796 21.1213 3.54535C20.5587 2.98274 19.7956 2.66667 19 2.66667H13C12.2044 2.66667 11.4413 2.98274 10.8787 3.54535C10.3161 4.10796 10 4.87102 10 5.66667V6.66667H5C4.73478 6.66667 4.48043 6.77203 4.29289 6.95957C4.10536 7.1471 4 7.40146 4 7.66667C4 7.93189 4.10536 8.18624 4.29289 8.37378C4.48043 8.56131 4.73478 8.66667 5 8.66667H6V26.6667C6 27.1971 6.21071 27.7058 6.58579 28.0809C6.96086 28.456 7.46957 28.6667 8 28.6667H24C24.5304 28.6667 25.0391 28.456 25.4142 28.0809C25.7893 27.7058 26 27.1971 26 26.6667V8.66667H27C27.2652 8.66667 27.5196 8.56131 27.7071 8.37378C27.8946 8.18624 28 7.93189 28 7.66667C28 7.40146 27.8946 7.1471 27.7071 6.95957C27.5196 6.77203 27.2652 6.66667 27 6.66667ZM12 5.66667C12 5.40146 12.1054 5.1471 12.2929 4.95957C12.4804 4.77203 12.7348 4.66667 13 4.66667H19C19.2652 4.66667 19.5196 4.77203 19.7071 4.95957C19.8946 5.1471 20 5.40146 20 5.66667V6.66667H12V5.66667ZM24 26.6667H8V8.66667H24V26.6667ZM14 13.6667V21.6667C14 21.9319 13.8946 22.1862 13.7071 22.3738C13.5196 22.5613 13.2652 22.6667 13 22.6667C12.7348 22.6667 12.4804 22.5613 12.2929 22.3738C12.1054 22.1862 12 21.9319 12 21.6667V13.6667C12 13.4015 12.1054 13.1471 12.2929 12.9596C12.4804 12.772 12.7348 12.6667 13 12.6667C13.2652 12.6667 13.5196 12.772 13.7071 12.9596C13.8946 13.1471 14 13.4015 14 13.6667ZM20 13.6667V21.6667C20 21.9319 19.8946 22.1862 19.7071 22.3738C19.5196 22.5613 19.2652 22.6667 19 22.6667C18.7348 22.6667 18.4804 22.5613 18.2929 22.3738C18.1054 22.1862 18 21.9319 18 21.6667V13.6667C18 13.4015 18.1054 13.1471 18.2929 12.9596C18.4804 12.772 18.7348 12.6667 19 12.6667C19.2652 12.6667 19.5196 12.772 19.7071 12.9596C19.8946 13.1471 20 13.4015 20 13.6667Z"/>
</svg>
